# xmcd
#
# Track frame offsets:
#	150
#	14677
#	28528
#	42718
#	53084
#	68468
#	84396
#	97266
#	112425
#	125185
#	137740
#	152012
#	208400
#
# Disc length: 3308 seconds
#
# Revision: 2
# Processed by: cddbd v1.4PL0 Copyright (c) Steve Scherf et al.
# Submitted via: audiograbber 1.80.04
#
DISCID=c60cea0d
DTITLE=St Thomas - Hey Harmony
DYEAR=2003
DGENRE=Folk
TTITLE0=A Long Long Time
TTITLE1=45 Seconds
TTITLE2=Everything Was Up For Romance
TTITLE3=Heroes Making Dinner
TTITLE4=Be Cool Be Nice
TTITLE5=Like A Big Time
TTITLE6=Strengthen Your Bow
TTITLE7=Falling Down
TTITLE8=New Apartment
TTITLE9=People In The Forest
TTITLE10=Cowboy, Cowgirl - Moviestar, Moviestar
TTITLE11=Institution
TTITLE12=Daten-CD
EXTD=
EXTT0=
EXTT1=
EXTT2=
EXTT3=
EXTT4=
EXTT5=
EXTT6=
EXTT7=
EXTT8=
EXTT9=
EXTT10=
EXTT11=
EXTT12=
PLAYORDER=
